<?xml version="1.0" standalone="no"?><!DOCTYPE svg PUBLIC "-//W3C//DTD SVG 1.1//EN" "http://www.w3.org/Graphics/SVG/1.1/DTD/svg11.dtd"><svg height="1024" node-id="1" sillyvg="true" template-height="1024" template-width="1024" version="1.1" viewBox="0 0 1024 1024" width="1024" xmlns="http://www.w3.org/2000/svg" xmlns:xlink="http://www.w3.org/1999/xlink"><defs node-id="41"><linearGradient gradientUnits="objectBoundingBox" id="linear-gradient" node-id="5" spreadMethod="pad" x1="0.5" x2="0.506" y1="0" y2="0.766"><stop offset="0" stop-color="#f8f8f8" stop-opacity="0.71"></stop><stop offset="1" stop-color="#e2e7f2" stop-opacity="0"></stop></linearGradient><linearGradient gradientUnits="objectBoundingBox" id="linear-gradient-2" node-id="8" spreadMethod="pad" x1="0.5" x2="0.5" y1="0" y2="0.522"><stop offset="0" stop-color="#f8f8f8"></stop><stop offset="1" stop-color="#f8f8f8" stop-opacity="0"></stop></linearGradient><linearGradient gradientUnits="objectBoundingBox" id="linear-gradient-3" node-id="11" spreadMethod="pad" x1="0.765" x2="0.338" y1="-0.019" y2="1.006"><stop offset="0" stop-color="#f8f8f8"></stop><stop offset="1" stop-color="#e2e7f2" stop-opacity="0"></stop></linearGradient><linearGradient gradientUnits="objectBoundingBox" id="linear-gradient-4" node-id="14" spreadMethod="pad" x1="0.7653618" x2="0.65030736" y1="-0.019008985" y2="0.8153854"><stop offset="0" stop-color="#f8f8f8"></stop><stop offset="1" stop-color="#e2e7f2" stop-opacity="0"></stop></linearGradient><linearGradient gradientUnits="objectBoundingBox" id="linear-gradient-5" node-id="15" spreadMethod="pad" x1="0.5002364" x2="0.5002364" y1="0" y2="1.0004728"><stop offset="0" stop-color="#f8f8f8"></stop><stop offset="1" stop-color="#e2e7f2"></stop></linearGradient><linearGradient gradientUnits="objectBoundingBox" id="linear-gradient-7" node-id="18" spreadMethod="pad" x1="0.5" x2="0.5" y1="0" y2="1"><stop offset="0" stop-color="#eaeef2"></stop><stop offset="1" stop-color="#e1e6ed"></stop></linearGradient><linearGradient gradientUnits="objectBoundingBox" id="linear-gradient-10" node-id="21" spreadMethod="pad" x1="0.5" x2="0.5" y1="0" y2="1"><stop offset="0" stop-color="#f8f8f8"></stop><stop offset="1" stop-color="#e2e7f2" stop-opacity="0"></stop></linearGradient></defs><g node-id="84"><path d="M 0.00 0.00 L 1024.00 0.00 L 1024.00 1024.00 L 0.00 1024.00 Z" fill="#ffffff" fill-opacity="0" fill-rule="nonzero" group-id="1" id="矩形_315" node-id="23" stroke="none" target-height="1024" target-width="1024" target-x="0" target-y="0"></path></g><g node-id="85"><g node-id="86"><path d="M 66.42 779.08 L 65.42 774.56 L 62.82 762.17 L 59.30 743.67 L 55.49 720.83 L 53.69 708.43 L 52.04 695.40 L 50.65 682.26 L 49.60 669.15 L 48.96 656.14 L 48.83 643.83 L 49.06 635.69 L 49.58 628.16 L 50.36 621.21 L 51.55 614.31 L 53.06 608.29 L 54.86 603.06 L 56.60 599.24 L 58.54 596.02 L 60.66 593.33 L 62.96 591.12 L 66.28 588.71 L 69.47 586.86 L 72.55 585.51 L 75.55 584.63 L 79.72 583.99 L 83.78 583.98 L 87.76 584.59 L 91.65 585.72 L 95.46 587.29 L 99.19 589.30 L 104.48 592.88 L 109.44 597.01 L 114.04 601.51 L 118.11 606.02 L 121.81 610.58 L 124.79 614.59 L 129.10 620.99 L 130.62 623.51 L 129.48 619.42 L 126.58 608.26 L 122.75 591.70 L 120.78 582.08 L 118.81 571.39 L 117.05 560.41 L 115.55 548.99 L 114.43 537.49 L 113.80 526.17 L 113.69 518.63 L 113.88 511.44 L 114.37 504.59 L 115.24 497.77 L 116.49 491.56 L 118.08 485.90 L 119.63 481.74 L 121.44 478.03 L 123.47 474.72 L 125.73 471.78 L 128.34 469.15 L 131.26 466.97 L 134.51 465.21 L 138.14 463.88 L 141.93 463.13 L 145.60 462.93 L 149.18 463.28 L 152.71 464.16 L 156.09 465.49 L 159.46 467.26 L 162.83 469.49 L 166.20 472.23 L 170.34 476.24 L 174.44 480.89 L 178.52 486.26 L 182.29 491.86 L 185.97 497.90 L 189.56 504.40 L 194.54 514.40 L 199.19 524.81 L 203.47 535.35 L 207.32 545.64 L 210.84 555.80 L 213.83 565.05 L 218.62 581.19 L 221.57 592.23 L 222.58 596.32 L 222.12 592.24 L 221.30 581.39 L 221.04 574.32 L 221.00 565.90 L 221.31 557.17 L 222.08 547.87 L 222.89 541.64 L 224.00 535.49 L 225.40 529.41 L 227.17 523.45 L 229.31 517.87 L 231.82 512.64 L 234.03 508.90 L 236.50 505.50 L 239.22 502.43 L 242.20 499.67 L 245.46 497.28 L 249.06 495.31 L 253.03 493.75 L 257.42 492.60 L 260.96 492.29 L 264.50 492.61 L 268.12 493.58 L 271.84 495.26 L 275.28 497.35 L 278.82 499.99 L 282.46 503.24 L 286.22 507.16 L 290.79 512.61 L 295.45 518.89 L 300.20 526.07 L 304.64 533.42 L 309.06 541.30 L 313.45 549.74 L 319.66 562.62 L 325.60 575.93 L 331.20 589.36 L 336.32 602.40 L 341.11 615.24 L 345.26 626.89 L 352.08 647.16 L 356.42 660.97 L 357.95 666.07 Z" fill="url(#linear-gradient)" fill-rule="nonzero" group-id="2,3" id="路径_63" node-id="25" stroke="none" target-height="316.15002" target-width="309.12" target-x="48.83" target-y="462.93"></path></g><g node-id="87"><path d="M 1002.00 809.00 L 1001.74 813.35 L 1000.98 817.68 L 999.71 822.04 L 997.90 826.44 L 995.51 830.91 L 992.50 835.46 L 988.64 840.30 L 984.02 845.24 L 978.54 850.27 L 972.14 855.41 L 964.70 860.66 L 957.48 865.22 L 949.43 869.83 L 940.49 874.48 L 930.60 879.17 L 919.67 883.90 L 906.44 889.10 L 891.90 894.27 L 875.94 899.39 L 858.48 904.46 L 840.02 909.29 L 820.43 913.90 L 799.64 918.29 L 778.80 922.23 L 757.01 925.91 L 734.25 929.31 L 711.46 932.31 L 687.93 935.00 L 663.64 937.37 L 639.33 939.36 L 614.49 941.01 L 589.12 942.32 L 563.73 943.25 L 538.03 943.81 L 512.00 944.00 L 485.97 943.81 L 460.27 943.25 L 434.88 942.32 L 409.51 941.01 L 384.67 939.36 L 360.36 937.37 L 336.07 935.00 L 312.54 932.31 L 289.75 929.31 L 266.99 925.91 L 245.20 922.23 L 224.36 918.29 L 203.57 913.90 L 183.98 909.29 L 165.52 904.46 L 148.06 899.39 L 132.10 894.27 L 117.56 889.10 L 104.33 883.90 L 93.40 879.17 L 83.51 874.48 L 74.57 869.83 L 66.52 865.22 L 59.30 860.66 L 51.86 855.41 L 45.46 850.27 L 39.98 845.24 L 35.36 840.30 L 31.50 835.46 L 28.49 830.91 L 26.10 826.44 L 24.29 822.04 L 23.02 817.68 L 22.26 813.35 L 22.00 809.00 L 22.26 804.65 L 23.02 800.32 L 24.29 795.96 L 26.10 791.56 L 28.49 787.09 L 31.50 782.54 L 35.36 777.70 L 39.98 772.76 L 45.46 767.73 L 51.86 762.59 L 59.30 757.34 L 66.52 752.78 L 74.57 748.17 L 83.51 743.52 L 93.40 738.83 L 104.33 734.10 L 117.56 728.90 L 132.10 723.73 L 148.06 718.61 L 165.52 713.54 L 183.98 708.71 L 203.57 704.10 L 224.36 699.71 L 245.20 695.77 L 266.99 692.09 L 289.75 688.69 L 312.54 685.69 L 336.07 683.00 L 360.36 680.63 L 384.67 678.64 L 409.51 676.99 L 434.88 675.68 L 460.27 674.75 L 485.97 674.19 L 512.00 674.00 L 538.03 674.19 L 563.73 674.75 L 589.12 675.68 L 614.49 676.99 L 639.33 678.64 L 663.64 680.63 L 687.93 683.00 L 711.46 685.69 L 734.25 688.69 L 757.01 692.09 L 778.80 695.77 L 799.64 699.71 L 820.43 704.10 L 840.02 708.71 L 858.48 713.54 L 875.94 718.61 L 891.90 723.73 L 906.44 728.90 L 919.67 734.10 L 930.60 738.83 L 940.49 743.52 L 949.43 748.17 L 957.48 752.78 L 964.70 757.34 L 972.14 762.59 L 978.54 767.73 L 984.02 772.76 L 988.64 777.70 L 992.50 782.54 L 995.51 787.09 L 997.90 791.56 L 999.71 795.96 L 1000.98 800.32 L 1001.74 804.65 L 1002.00 809.00 Z" fill="url(#linear-gradient-2)" fill-rule="nonzero" group-id="2,4" id="椭圆_16" node-id="26" stroke="none" target-height="270" target-width="980" target-x="22" target-y="674"></path></g><g node-id="88"><path d="M 804.83 676.92 L 809.85 673.96 L 813.75 671.17 L 816.70 668.53 L 819.36 665.58 L 821.35 662.81 L 822.78 660.18 L 824.38 656.07 L 825.33 652.31 L 826.62 645.39 L 827.16 643.32 L 827.93 641.49 L 828.92 639.85 L 830.20 638.46 L 832.01 637.22 L 834.50 636.15 L 840.33 634.19 L 845.39 632.33 L 850.10 630.26 L 854.02 628.04 L 856.39 626.31 L 858.44 624.38 L 860.20 622.23 L 861.63 619.86 L 862.80 617.09 L 863.70 613.85 L 865.07 619.20 L 866.70 624.06 L 870.13 633.30 L 871.52 637.86 L 872.43 642.51 L 872.69 645.66 L 872.58 649.02 L 872.07 652.62 L 871.16 656.15 L 869.67 660.11 L 867.49 664.57 L 865.70 668.30 L 864.30 672.00 L 863.29 675.69 L 862.24 681.31 L 861.63 686.88 L 860.96 697.86 L 860.49 703.21 L 859.68 708.34 L 858.86 711.67 L 857.72 714.89 L 856.24 718.02 L 854.40 720.95 L 852.03 723.81 L 849.06 726.62 L 845.71 729.06 L 842.16 731.08 L 838.38 732.70 L 834.46 733.98 L 830.49 734.95 L 826.46 735.62 L 820.41 736.18 L 814.71 736.29 L 809.19 736.06 L 804.55 735.64 L 797.41 734.57 L 794.72 734.01 L 793.65 731.72 L 791.29 725.58 L 790.06 721.55 L 788.92 716.74 L 788.14 711.71 L 787.82 706.32 L 787.94 702.70 L 788.41 699.09 L 789.25 695.46 L 790.49 691.97 L 792.22 688.58 L 794.49 685.28 L 797.19 682.33 L 800.61 679.54 L 804.83 676.92 Z" fill="url(#linear-gradient-3)" fill-rule="nonzero" group-id="2,5" id="路径_61" node-id="27" stroke="none" target-height="122.44" target-width="84.869995" target-x="787.82" target-y="613.85"></path></g><g node-id="89"><path d="M 878.81 695.16 L 882.79 694.84 L 886.03 694.29 L 888.63 693.56 L 891.15 692.54 L 893.22 691.43 L 894.88 690.24 L 897.10 688.20 L 898.81 686.17 L 901.69 682.29 L 903.14 680.71 L 904.77 679.58 L 905.97 679.11 L 907.46 678.89 L 909.31 678.97 L 914.85 679.67 L 919.49 680.02 L 922.47 679.98 L 925.15 679.61 L 927.56 678.93 L 929.79 677.85 L 931.92 676.24 L 933.97 674.02 L 933.07 678.64 L 932.59 682.92 L 932.18 687.13 L 931.58 691.14 L 930.94 693.72 L 929.93 696.30 L 928.54 698.88 L 926.81 701.24 L 924.37 703.73 L 921.08 706.37 L 918.44 708.50 L 916.15 710.77 L 914.18 713.18 L 911.56 717.04 L 909.26 720.98 L 907.05 724.92 L 904.79 728.63 L 903.13 730.97 L 901.29 733.10 L 899.24 735.02 L 896.97 736.64 L 894.28 737.98 L 891.10 739.02 L 887.75 739.57 L 884.40 739.68 L 881.03 739.35 L 876.08 738.26 L 871.40 736.63 L 866.97 734.61 L 863.23 732.56 L 857.57 728.87 L 855.45 727.25 L 855.51 724.93 L 855.70 722.53 L 856.16 719.12 L 856.91 715.52 L 858.11 711.52 L 859.78 707.61 L 862.06 703.85 L 863.92 701.58 L 866.13 699.58 L 868.73 697.82 L 871.55 696.51 L 874.88 695.61 L 878.81 695.16 Z" fill="url(#linear-gradient-4)" fill-rule="nonzero" group-id="2,6" id="路径_62" node-id="28" stroke="none" target-height="65.65997" target-width="78.51996" target-x="855.45" target-y="674.02"></path></g><g node-id="90"><path d="M 260.42 717.19 L 262.91 717.48 L 269.31 717.73 L 273.35 717.57 L 277.95 717.04 L 282.58 716.07 L 287.20 714.51 L 290.14 713.10 L 292.87 711.35 L 295.41 709.22 L 297.59 706.76 L 299.43 703.81 L 300.92 700.28 L 301.66 697.56 L 302.13 694.45 L 302.29 690.87 L 302.10 686.78 L 302.58 681.68 L 303.29 677.56 L 304.18 674.29 L 305.42 671.10 L 306.69 668.63 L 307.99 666.76 L 310.25 664.37 L 312.27 662.93 L 314.31 661.97 L 315.75 661.56 L 317.20 661.38 L 315.58 661.54 L 313.94 661.90 L 311.63 662.73 L 309.29 663.98 L 306.68 666.02 L 305.11 667.67 L 303.58 669.80 L 302.07 672.50 L 300.90 675.35 L 299.91 678.89 L 299.14 683.24 L 294.28 683.33 L 290.00 683.75 L 286.25 684.46 L 282.96 685.43 L 278.66 687.22 L 275.05 689.29 L 272.06 691.62 L 269.37 694.31 L 267.16 697.06 L 265.40 699.86 L 263.29 704.24 L 261.94 708.18 L 261.04 711.95 L 260.62 714.61 L 260.42 717.19 Z" fill="url(#linear-gradient-5)" fill-rule="nonzero" group-id="2,7" id="路径_72" node-id="29" stroke="none" target-height="56.349976" target-width="56.78" target-x="260.42" target-y="661.38"></path></g><g node-id="91"><path d="M 127.34 719.71 L 129.17 720.07 L 133.75 720.53 L 136.59 720.51 L 139.69 720.16 L 142.74 719.38 L 145.62 718.05 L 147.34 716.83 L 148.84 715.25 L 150.16 713.27 L 151.08 711.08 L 151.69 708.33 L 151.92 704.89 L 152.60 701.39 L 153.39 698.76 L 154.26 696.83 L 155.93 694.32 L 157.46 692.91 L 159.10 691.99 L 160.30 691.64 L 161.52 691.54 L 160.15 691.60 L 158.80 691.88 L 156.95 692.63 L 155.17 693.84 L 153.27 695.93 L 152.24 697.59 L 151.29 699.83 L 150.45 702.78 L 146.23 702.60 L 142.76 702.90 L 139.90 703.62 L 137.19 704.78 L 134.96 706.15 L 133.16 707.71 L 130.90 710.41 L 129.37 713.07 L 128.28 715.74 L 127.71 717.72 L 127.34 719.71 Z" fill="url(#linear-gradient-5)" fill-rule="nonzero" group-id="2,8" id="路径_73" node-id="30" stroke="none" target-height="28.990051" target-width="34.180008" target-x="127.34" target-y="691.54"></path></g><g node-id="92"><path d="M 299.32 317.71 L 299.32 317.71 L 304.24 318.05 L 308.88 318.99 L 313.27 320.53 L 317.43 322.62 L 321.22 325.17 L 324.66 328.21 L 327.70 331.65 L 330.25 335.44 L 332.34 339.60 L 333.88 343.99 L 334.82 348.63 L 335.16 353.55 L 335.16 434.04 L 335.16 434.04 L 263.47 434.04 L 263.47 434.04 L 263.47 353.55 L 263.81 348.63 L 264.75 343.99 L 266.29 339.60 L 268.38 335.44 L 270.93 331.65 L 273.97 328.21 L 277.42 325.17 L 281.20 322.62 L 285.36 320.52 L 289.76 318.99 L 294.39 318.05 L 299.32 317.71 Z" fill="#d7dbe1" fill-rule="nonzero" group-id="2,9" id="矩形_338" node-id="31" stroke="none" target-height="116.33002" target-width="71.69" target-x="263.47" target-y="317.71"></path></g><g node-id="93"><path d="M 301.09 317.77 L 302.81 318.14 L 304.56 318.75 L 307.12 320.03 L 309.72 321.79 L 312.75 324.58 L 314.61 326.75 L 316.50 329.51 L 318.44 332.97 L 320.05 336.57 L 321.55 340.98 L 322.92 346.34 L 323.88 351.75 L 324.57 358.21 L 324.92 365.85 L 325.17 382.93 L 325.56 407.80 L 326.05 438.47 L 326.60 472.96 L 327.19 509.28 L 327.78 545.46 L 328.33 579.50 L 328.82 609.43 L 329.21 633.27 L 329.46 649.03 L 329.56 654.72 L 329.63 657.70 L 329.84 660.82 L 330.35 665.33 L 331.18 670.16 L 332.51 675.69 L 334.35 681.23 L 336.87 686.82 L 338.93 690.37 L 341.37 693.68 L 344.20 696.78 L 347.38 699.48 L 351.05 701.76 L 355.28 703.63 L 358.55 704.60 L 362.21 705.25 L 366.30 705.54 L 370.88 705.43 L 388.51 704.25 L 414.43 702.72 L 446.27 700.94 L 481.63 699.04 L 518.11 697.12 L 553.32 695.30 L 584.87 693.69 L 610.36 692.39 L 627.42 691.54 L 633.63 691.23 L 622.81 408.95 L 622.84 405.18 L 622.73 401.16 L 622.35 395.20 L 621.67 388.73 L 620.47 381.04 L 618.77 373.13 L 616.35 364.71 L 614.33 359.15 L 611.92 353.66 L 609.10 348.23 L 605.85 343.06 L 602.11 338.19 L 597.86 333.62 L 594.38 330.53 L 590.56 327.71 L 586.36 325.17 L 581.77 322.91 L 577.07 321.12 L 571.90 319.70 L 566.21 318.68 L 559.95 318.10 L 547.53 317.96 L 527.03 317.85 L 500.42 317.78 L 469.63 317.73 L 436.62 317.71 L 403.33 317.71 L 371.72 317.72 L 343.75 317.73 L 321.35 317.75 L 306.48 317.76 L 301.09 317.77 Z" fill="url(#linear-gradient-7)" fill-rule="nonzero" group-id="2,10" id="路径_99" node-id="32" stroke="none" target-height="387.83" target-width="332.54" target-x="301.09" target-y="317.71"></path></g><g node-id="94"><path d="M 388.03 703.80 L 390.43 703.48 L 393.02 702.79 L 397.22 701.11 L 400.08 699.66 L 403.56 697.53 L 407.75 694.57 L 411.69 691.36 L 416.21 687.14 L 421.37 681.73 L 426.20 676.07 L 431.54 669.05 L 437.46 660.47 L 440.74 655.84 L 443.92 651.98 L 447.01 648.81 L 450.00 646.24 L 453.34 643.88 L 456.56 642.02 L 459.68 640.62 L 462.71 639.64 L 466.94 638.80 L 470.96 638.49 L 474.83 638.69 L 478.66 639.31 L 482.24 640.22 L 485.57 641.40 L 490.31 643.57 L 494.19 645.79 L 497.64 648.12 L 499.93 649.88 L 502.01 651.68 L 523.52 697.14 Z" fill="#d7dbe1" fill-rule="nonzero" group-id="2,11" id="路径_100" node-id="33" stroke="none" target-height="65.31" target-width="135.49002" target-x="388.03" target-y="638.49"></path></g><g node-id="95"><path d="M 478.73 639.57 L 480.92 640.11 L 483.18 640.92 L 486.53 642.51 L 490.00 644.65 L 494.12 647.94 L 496.72 650.47 L 499.42 653.64 L 502.25 657.54 L 504.71 661.65 L 507.12 666.60 L 509.46 672.50 L 511.34 678.54 L 512.98 685.65 L 514.33 693.98 L 515.16 702.33 L 515.55 712.00 L 515.41 723.13 L 543.30 722.83 L 576.73 722.66 L 613.69 722.59 L 652.21 722.60 L 690.27 722.67 L 725.89 722.78 L 757.07 722.90 L 781.81 723.01 L 798.12 723.09 L 804.00 723.13 L 803.80 719.64 L 802.83 710.41 L 801.92 704.43 L 800.55 697.32 L 798.79 690.02 L 796.44 682.25 L 794.58 677.11 L 792.42 672.05 L 789.95 667.06 L 787.16 662.27 L 784.03 657.80 L 780.55 653.64 L 777.68 650.76 L 774.59 648.18 L 771.27 645.88 L 767.69 643.85 L 763.97 642.21 L 759.95 640.94 L 755.59 640.06 L 750.85 639.57 L 730.90 638.99 L 703.07 638.65 L 669.70 638.51 L 633.15 638.53 L 595.77 638.67 L 559.91 638.88 L 527.92 639.12 L 502.16 639.34 L 484.98 639.51 L 478.73 639.57 Z" fill="url(#linear-gradient-7)" fill-rule="nonzero" group-id="2,12" id="路径_101" node-id="34" stroke="none" target-height="84.619995" target-width="325.27" target-x="478.73" target-y="638.51"></path></g><g node-id="96"><path d="M 793.09 601.60 L 781.80 609.80 L 780.33 610.67 L 778.83 611.24 L 777.25 611.53 L 774.88 611.46 L 772.59 610.79 L 771.19 610.03 L 769.93 609.02 L 768.80 607.74 L 751.71 584.21 L 750.67 582.37 L 750.08 580.46 L 749.93 578.46 L 750.21 576.46 L 750.91 574.59 L 752.06 572.82 L 735.14 549.54 L 730.40 551.87 L 725.63 553.79 L 720.80 555.31 L 715.92 556.44 L 710.95 557.20 L 706.01 557.59 L 701.08 557.61 L 696.17 557.27 L 689.68 556.25 L 683.36 554.61 L 677.20 552.36 L 672.73 550.28 L 668.43 547.87 L 664.30 545.14 L 660.32 542.06 L 656.60 538.70 L 653.12 535.03 L 649.87 531.04 L 646.86 526.70 L 644.20 522.13 L 641.95 517.50 L 640.10 512.80 L 638.63 508.01 L 637.52 503.10 L 636.79 498.20 L 636.43 493.29 L 636.43 488.36 L 636.99 481.81 L 638.18 475.40 L 640.00 469.09 L 641.77 464.49 L 643.87 460.03 L 646.31 455.72 L 649.10 451.54 L 652.19 447.59 L 655.61 443.86 L 659.37 440.35 L 663.48 437.03 L 667.85 434.07 L 672.32 431.50 L 676.88 429.32 L 681.56 427.53 L 686.38 426.08 L 691.21 425.00 L 696.09 424.30 L 701.00 423.96 L 707.57 424.06 L 714.05 424.80 L 720.48 426.18 L 725.19 427.62 L 729.78 429.40 L 734.25 431.54 L 738.62 434.03 L 742.77 436.84 L 746.73 439.98 L 750.50 443.49 L 754.09 447.36 L 757.36 451.52 L 760.23 455.79 L 762.72 460.19 L 764.84 464.73 L 766.62 469.44 L 768.02 474.19 L 769.07 479.00 L 769.75 483.88 L 770.11 490.44 L 769.82 496.96 L 768.90 503.46 L 767.79 508.26 L 766.33 512.96 L 764.51 517.58 L 762.33 522.11 L 759.82 526.45 L 756.96 530.61 L 753.72 534.62 L 750.11 538.47 L 767.12 561.88 L 769.16 561.34 L 771.15 561.25 L 773.13 561.60 L 774.99 562.37 L 776.63 563.51 L 778.06 565.07 L 795.15 588.60 L 796.02 590.06 L 796.59 591.57 L 796.88 593.14 L 796.81 595.52 L 796.14 597.81 L 795.38 599.21 L 794.37 600.47 L 793.09 601.60 Z M 687.83 469.58 L 685.07 471.89 L 682.74 474.44 L 680.80 477.23 L 679.24 480.25 L 678.10 483.39 L 677.37 486.66 L 677.05 490.00 L 677.17 493.33 L 677.72 496.69 L 678.70 499.94 L 680.13 503.08 L 682.04 506.14 L 684.36 508.90 L 686.90 511.24 L 689.69 513.17 L 692.72 514.73 L 695.85 515.87 L 699.12 516.61 L 702.46 516.92 L 705.79 516.80 L 709.15 516.25 L 712.40 515.27 L 715.55 513.84 L 718.60 511.93 L 721.36 509.62 L 723.70 507.07 L 725.63 504.28 L 727.19 501.26 L 728.34 498.12 L 729.07 494.85 L 729.38 491.51 L 729.27 488.18 L 728.72 484.82 L 727.74 481.57 L 726.30 478.43 L 724.39 475.37 L 722.08 472.61 L 719.53 470.28 L 716.74 468.34 L 713.71 466.79 L 710.58 465.65 L 707.31 464.91 L 703.97 464.60 L 700.64 464.72 L 697.28 465.26 L 694.03 466.24 L 690.89 467.67 L 687.83 469.58 Z" fill="url(#linear-gradient-5)" fill-rule="nonzero" group-id="2,13" id="路径_8757" node-id="35" stroke="none" target-height="187.57004" target-width="160.45001" target-x="636.43" target-y="423.96"></path></g><g node-id="97"><path d="M 733.95 236.65 L 729.85 236.37 L 725.94 235.72 L 722.19 234.70 L 718.59 233.33 L 715.12 231.60 L 711.89 229.59 L 708.88 227.30 L 706.08 224.71 L 703.53 221.87 L 701.29 218.83 L 699.34 215.57 L 697.67 212.07 L 696.35 208.45 L 695.39 204.68 L 694.80 200.76 L 694.59 196.65 L 694.80 192.55 L 695.39 188.62 L 696.35 184.86 L 697.67 181.24 L 699.34 177.74 L 701.29 174.48 L 703.53 171.43 L 706.08 168.59 L 708.88 166.01 L 711.89 163.71 L 715.12 161.71 L 718.59 159.98 L 722.19 158.61 L 725.94 157.59 L 729.85 156.94 L 733.95 156.66 L 738.97 156.98 L 743.85 157.93 L 748.62 159.51 L 748.51 156.66 L 748.72 152.42 L 749.39 148.34 L 750.54 144.38 L 752.14 140.58 L 754.15 137.03 L 756.58 133.71 L 759.38 130.68 L 762.53 128.00 L 766.06 125.64 L 769.85 123.73 L 773.74 122.31 L 777.75 121.36 L 781.84 120.89 L 785.92 120.89 L 790.02 121.36 L 794.02 122.31 L 797.91 123.73 L 801.70 125.64 L 805.23 128.00 L 808.38 130.68 L 811.18 133.71 L 813.61 137.03 L 815.62 140.58 L 817.22 144.38 L 818.37 148.34 L 819.05 152.42 L 819.25 156.66 L 818.96 161.29 L 818.09 165.78 L 816.64 170.19 L 819.46 168.64 L 822.37 167.37 L 825.39 166.37 L 828.50 165.66 L 831.65 165.22 L 834.86 165.08 L 839.73 165.47 L 844.32 166.44 L 848.66 168.00 L 852.77 170.11 L 856.52 172.66 L 859.92 175.69 L 862.91 179.13 L 865.43 182.89 L 867.49 187.03 L 869.00 191.39 L 869.93 195.99 L 870.26 200.86 L 869.93 205.74 L 869.00 210.34 L 867.49 214.70 L 865.43 218.84 L 862.91 222.60 L 859.92 226.04 L 856.52 229.07 L 852.78 231.62 L 848.66 233.73 L 844.32 235.29 L 839.73 236.26 L 834.86 236.65 Z" fill="url(#linear-gradient-10)" fill-rule="nonzero" group-id="2,14" id="联合_62" node-id="36" stroke="none" target-height="115.759995" target-width="175.66998" target-x="694.59" target-y="120.89"></path></g><g node-id="98"><path d="M 180.53 276.15 L 176.85 275.89 L 173.39 275.17 L 170.11 274.00 L 167.01 272.41 L 164.18 270.47 L 161.61 268.15 L 159.34 265.53 L 157.44 262.65 L 155.87 259.48 L 154.73 256.14 L 154.02 252.61 L 153.77 248.86 L 154.02 245.11 L 154.73 241.58 L 155.87 238.23 L 157.44 235.06 L 159.34 232.18 L 161.61 229.56 L 164.18 227.25 L 167.01 225.30 L 170.11 223.71 L 173.39 222.54 L 176.85 221.83 L 180.53 221.57 L 183.93 221.78 L 187.23 222.43 L 190.46 223.51 L 190.38 221.57 L 190.50 218.68 L 190.95 215.90 L 191.72 213.21 L 192.79 210.63 L 194.15 208.21 L 195.79 205.94 L 197.68 203.88 L 199.82 202.05 L 202.22 200.44 L 204.79 199.14 L 207.43 198.17 L 210.16 197.52 L 212.94 197.20 L 215.71 197.20 L 218.49 197.52 L 221.22 198.17 L 223.86 199.14 L 226.43 200.44 L 228.83 202.05 L 230.96 203.88 L 232.86 205.94 L 234.50 208.21 L 235.86 210.63 L 236.93 213.21 L 237.70 215.90 L 238.15 218.68 L 238.27 221.57 L 238.07 224.72 L 237.48 227.79 L 236.50 230.80 L 239.38 229.29 L 242.42 228.20 L 245.58 227.53 L 248.83 227.31 L 252.13 227.61 L 255.24 228.29 L 258.17 229.37 L 260.95 230.82 L 263.48 232.57 L 265.78 234.64 L 267.80 236.97 L 269.50 239.54 L 270.89 242.34 L 271.91 245.30 L 272.53 248.42 L 272.76 251.73 L 272.53 255.04 L 271.91 258.16 L 270.89 261.12 L 269.50 263.92 L 267.80 266.49 L 265.78 268.82 L 263.48 270.89 L 260.95 272.64 L 258.17 274.09 L 255.24 275.17 L 252.13 275.85 L 248.83 276.15 Z" fill="url(#linear-gradient-10)" fill-rule="nonzero" group-id="2,15" id="联合_63" node-id="37" stroke="none" target-height="78.95" target-width="118.990005" target-x="153.77" target-y="197.2"></path></g><g node-id="99"><path d="M 384.93 433.85 L 563.81 433.85 L 567.46 434.19 L 570.80 435.10 L 573.90 436.58 L 576.71 438.56 L 579.09 440.94 L 581.08 443.75 L 582.56 446.85 L 583.47 450.20 L 583.81 453.85 L 583.81 453.85 L 583.47 457.50 L 582.56 460.84 L 581.08 463.94 L 579.09 466.75 L 576.71 469.13 L 573.90 471.12 L 570.81 472.59 L 567.46 473.51 L 563.81 473.85 L 384.93 473.85 L 381.28 473.51 L 377.94 472.59 L 374.84 471.12 L 372.03 469.13 L 369.65 466.75 L 367.66 463.94 L 366.19 460.84 L 365.27 457.50 L 364.93 453.85 L 364.93 453.85 L 365.27 450.20 L 366.19 446.85 L 367.66 443.75 L 369.65 440.94 L 372.03 438.56 L 374.84 436.58 L 377.94 435.10 L 381.28 434.19 L 384.93 433.85 Z" fill="#ffffff" fill-rule="nonzero" group-id="2,16" id="矩形_383" node-id="38" stroke="none" target-height="40" target-width="218.88" target-x="364.93" target-y="433.85"></path></g><path d="M 384.93 514.49 L 474.93 514.49 L 478.58 514.83 L 481.93 515.74 L 485.03 517.22 L 487.84 519.21 L 490.22 521.59 L 492.20 524.39 L 493.68 527.49 L 494.59 530.84 L 494.93 534.49 L 494.93 534.49 L 494.59 538.14 L 493.68 541.48 L 492.20 544.58 L 490.22 547.39 L 487.84 549.77 L 485.03 551.76 L 481.93 553.24 L 478.58 554.15 L 474.93 554.49 L 384.93 554.49 L 381.28 554.15 L 377.94 553.24 L 374.84 551.76 L 372.03 549.77 L 369.65 547.39 L 367.66 544.58 L 366.19 541.48 L 365.27 538.14 L 364.93 534.49 L 364.93 534.49 L 365.27 530.84 L 366.19 527.49 L 367.66 524.39 L 369.65 521.59 L 372.03 519.21 L 374.84 517.22 L 377.94 515.74 L 381.28 514.83 L 384.93 514.49 Z" fill="#ffffff" fill-rule="nonzero" group-id="2,17" id="矩形_384" node-id="39" stroke="none" target-height="40" target-width="130" target-x="364.93" target-y="514.49"></path></g></svg>