<svg width="240" height="240" viewBox="0 0 240 240" fill="none" xmlns="http://www.w3.org/2000/svg">
<path fill-rule="evenodd" clip-rule="evenodd" d="M18.3011 207H83.7557C101.483 207 117.278 203.648 131.142 196.943C145.006 190.182 156.369 180.437 165.233 167.71C174.153 154.983 180.091 139.699 183.045 121.858C184.488 113.173 185.045 105.054 184.716 97.5H142.961C143.351 103.157 142.906 109.828 141.625 117.511C139.523 130.352 136 140.722 131.057 148.619C126.114 156.46 119.864 162.17 112.307 165.75C104.807 169.273 96.1705 171.034 86.3977 171.034H66.3693L83.5 68.4204H104.466C105.769 68.4204 107.039 68.447 108.277 68.5H177.889C172.845 57.8076 165.246 49.4004 155.091 43.2784C143.273 36.0625 128.5 32.4545 110.773 32.4545H47.2784L18.3011 207Z" fill="black"/>
<path d="M110 84H159H229L208 120H159H89L110 84Z" fill="black"/>
</svg>
